<?xml version="1.0" encoding="UTF-8" standalone="no"?>
<!DOCTYPE svg PUBLIC "-//W3C//DTD SVG 1.1//EN"
 "http://www.w3.org/Graphics/SVG/1.1/DTD/svg11.dtd">
<!-- Generated by graphviz version 2.40.1 (20161225.0304)
 -->
<!-- Title: dependencies Pages: 1 -->
<svg width="544pt" height="284pt"
 viewBox="0.00 0.00 544.00 284.00" xmlns="http://www.w3.org/2000/svg" xmlns:xlink="http://www.w3.org/1999/xlink">
<g id="graph0" class="graph" transform="scale(1 1) rotate(0) translate(4 280)">
<title>dependencies</title>
<polygon fill="#ffffff" stroke="transparent" points="-4,4 -4,-280 540,-280 540,4 -4,4"/>
<text text-anchor="start" x="247.0091" y="-42.4" font-family="sans-serif" font-weight="bold" font-size="14.00" fill="#000000">Legend</text>
<polygon fill="#ffffb3" stroke="transparent" points="34,-10 34,-30 54,-30 54,-10 34,-10"/>
<text text-anchor="start" x="57.629" y="-15.4" font-family="sans-serif" font-size="14.00" fill="#000000"> &#160;Declarations</text>
<polygon fill="#8dd3c7" stroke="transparent" points="147,-10 147,-30 167,-30 167,-10 147,-10"/>
<text text-anchor="start" x="170.7251" y="-15.4" font-family="sans-serif" font-size="14.00" fill="#000000"> &#160;Module</text>
<polygon fill="#80b1d3" stroke="transparent" points="233,-10 233,-30 253,-30 253,-10 233,-10"/>
<text text-anchor="start" x="256.7812" y="-15.4" font-family="sans-serif" font-size="14.00" fill="#000000"> &#160;Bootstrap</text>
<polygon fill="#fdb462" stroke="transparent" points="330,-10 330,-30 350,-30 350,-10 330,-10"/>
<text text-anchor="start" x="353.6732" y="-15.4" font-family="sans-serif" font-size="14.00" fill="#000000"> &#160;Providers</text>
<polygon fill="#fb8072" stroke="transparent" points="426,-10 426,-30 446,-30 446,-10 426,-10"/>
<text text-anchor="start" x="449.7258" y="-15.4" font-family="sans-serif" font-size="14.00" fill="#000000"> &#160;Exports</text>
<g id="clust1" class="cluster">
<title>cluster_ComponentesModule</title>
<polygon fill="none" stroke="#000000" stroke-dasharray="1,5" points="8,-70 8,-268 528,-268 528,-70 8,-70"/>
</g>
<g id="clust2" class="cluster">
<title>cluster_ComponentesModule_declarations</title>
<polygon fill="none" stroke="#000000" points="21,-78 21,-130 515,-130 515,-78 21,-78"/>
</g>
<g id="clust7" class="cluster">
<title>cluster_ComponentesModule_exports</title>
<polygon fill="none" stroke="#000000" points="16,-208 16,-260 520,-260 520,-208 16,-208"/>
</g>
<!-- CabecalhoComponent -->
<g id="node1" class="node">
<title>CabecalhoComponent</title>
<polygon fill="#ffffb3" stroke="#000000" points="507.4186,-122 366.5814,-122 366.5814,-86 507.4186,-86 507.4186,-122"/>
<text text-anchor="middle" x="437" y="-99.8" font-family="Times,serif" font-size="14.00" fill="#000000">CabecalhoComponent</text>
</g>
<!-- ComponentesModule -->
<g id="node4" class="node">
<title>ComponentesModule</title>
<polygon fill="#8dd3c7" stroke="#000000" points="347.0422,-187 344.0422,-191 323.0422,-191 320.0422,-187 210.9578,-187 210.9578,-151 347.0422,-151 347.0422,-187"/>
<text text-anchor="middle" x="279" y="-164.8" font-family="Times,serif" font-size="14.00" fill="#000000">ComponentesModule</text>
</g>
<!-- CabecalhoComponent&#45;&gt;ComponentesModule -->
<g id="edge1" class="edge">
<title>CabecalhoComponent&#45;&gt;ComponentesModule</title>
<path fill="none" stroke="#000000" d="M460.8197,-122.0225C460.8197,-139.3734 460.8197,-163 460.8197,-163 460.8197,-163 357.2202,-163 357.2202,-163"/>
<polygon fill="#000000" stroke="#000000" points="357.2203,-159.5001 347.2202,-163 357.2202,-166.5001 357.2203,-159.5001"/>
</g>
<!-- ListaSalasComponent -->
<g id="node2" class="node">
<title>ListaSalasComponent</title>
<polygon fill="#ffffb3" stroke="#000000" points="348.3725,-122 209.6275,-122 209.6275,-86 348.3725,-86 348.3725,-122"/>
<text text-anchor="middle" x="279" y="-99.8" font-family="Times,serif" font-size="14.00" fill="#000000">ListaSalasComponent</text>
</g>
<!-- ListaSalasComponent&#45;&gt;ComponentesModule -->
<g id="edge2" class="edge">
<title>ListaSalasComponent&#45;&gt;ComponentesModule</title>
<path fill="none" stroke="#000000" d="M279,-122.1061C279,-122.1061 279,-140.991 279,-140.991"/>
<polygon fill="#000000" stroke="#000000" points="275.5001,-140.9909 279,-150.991 282.5001,-140.991 275.5001,-140.9909"/>
</g>
<!-- ModalSimplesComponent -->
<g id="node3" class="node">
<title>ModalSimplesComponent</title>
<polygon fill="#ffffb3" stroke="#000000" points="191.4958,-122 28.5042,-122 28.5042,-86 191.4958,-86 191.4958,-122"/>
<text text-anchor="middle" x="110" y="-99.8" font-family="Times,serif" font-size="14.00" fill="#000000">ModalSimplesComponent</text>
</g>
<!-- ModalSimplesComponent&#45;&gt;ComponentesModule -->
<g id="edge3" class="edge">
<title>ModalSimplesComponent&#45;&gt;ComponentesModule</title>
<path fill="none" stroke="#000000" d="M136.3326,-122.0225C136.3326,-139.3734 136.3326,-163 136.3326,-163 136.3326,-163 200.5914,-163 200.5914,-163"/>
<polygon fill="#000000" stroke="#000000" points="200.5914,-166.5001 210.5914,-163 200.5913,-159.5001 200.5914,-166.5001"/>
</g>
<!-- CabecalhoComponent  -->
<g id="node5" class="node">
<title>CabecalhoComponent </title>
<polygon fill="#fb8072" stroke="#000000" points="511.918,-252 368.082,-252 368.082,-216 511.918,-216 511.918,-252"/>
<text text-anchor="middle" x="440" y="-229.8" font-family="Times,serif" font-size="14.00" fill="#000000">CabecalhoComponent </text>
</g>
<!-- ComponentesModule&#45;&gt;CabecalhoComponent  -->
<g id="edge4" class="edge">
<title>ComponentesModule&#45;&gt;CabecalhoComponent </title>
<path fill="none" stroke="#000000" stroke-dasharray="5,2" d="M347.1119,-175C380.8367,-175 414.4303,-175 414.4303,-175 414.4303,-175 414.4303,-205.9775 414.4303,-205.9775"/>
<polygon fill="#000000" stroke="#000000" points="410.9304,-205.9774 414.4303,-215.9775 417.9304,-205.9775 410.9304,-205.9774"/>
</g>
<!-- ListaSalasComponent  -->
<g id="node6" class="node">
<title>ListaSalasComponent </title>
<polygon fill="#fb8072" stroke="#000000" points="350.3729,-252 207.6271,-252 207.6271,-216 350.3729,-216 350.3729,-252"/>
<text text-anchor="middle" x="279" y="-229.8" font-family="Times,serif" font-size="14.00" fill="#000000">ListaSalasComponent </text>
</g>
<!-- ComponentesModule&#45;&gt;ListaSalasComponent  -->
<g id="edge5" class="edge">
<title>ComponentesModule&#45;&gt;ListaSalasComponent </title>
<path fill="none" stroke="#000000" stroke-dasharray="5,2" d="M279,-187.1061C279,-187.1061 279,-205.991 279,-205.991"/>
<polygon fill="#000000" stroke="#000000" points="275.5001,-205.9909 279,-215.991 282.5001,-205.991 275.5001,-205.9909"/>
</g>
<!-- ModalSimplesComponent  -->
<g id="node7" class="node">
<title>ModalSimplesComponent </title>
<polygon fill="#fb8072" stroke="#000000" points="190.4965,-252 23.5035,-252 23.5035,-216 190.4965,-216 190.4965,-252"/>
<text text-anchor="middle" x="107" y="-229.8" font-family="Times,serif" font-size="14.00" fill="#000000">ModalSimplesComponent </text>
</g>
<!-- ComponentesModule&#45;&gt;ModalSimplesComponent  -->
<g id="edge6" class="edge">
<title>ComponentesModule&#45;&gt;ModalSimplesComponent </title>
<path fill="none" stroke="#000000" stroke-dasharray="5,2" d="M210.7966,-175C154.0189,-175 82.4174,-175 82.4174,-175 82.4174,-175 82.4174,-205.9775 82.4174,-205.9775"/>
<polygon fill="#000000" stroke="#000000" points="78.9175,-205.9774 82.4174,-215.9775 85.9175,-205.9775 78.9175,-205.9774"/>
</g>
</g>
</svg>
