<?xml version="1.0" encoding="UTF-8" standalone="no"?>
<!DOCTYPE svg PUBLIC "-//W3C//DTD SVG 1.1//EN"
 "http://www.w3.org/Graphics/SVG/1.1/DTD/svg11.dtd">
<!-- Generated by graphviz version 2.40.1 (20161225.0304)
 -->
<!-- Title: dependencies Pages: 1 -->
<svg width="841pt" height="284pt"
 viewBox="0.00 0.00 841.00 284.00" xmlns="http://www.w3.org/2000/svg" xmlns:xlink="http://www.w3.org/1999/xlink">
<g id="graph0" class="graph" transform="scale(1 1) rotate(0) translate(4 280)">
<title>dependencies</title>
<polygon fill="#ffffff" stroke="transparent" points="-4,4 -4,-280 837,-280 837,4 -4,4"/>
<text text-anchor="start" x="395.5091" y="-42.4" font-family="sans-serif" font-weight="bold" font-size="14.00" fill="#000000">Legend</text>
<polygon fill="#ffffb3" stroke="transparent" points="182.5,-10 182.5,-30 202.5,-30 202.5,-10 182.5,-10"/>
<text text-anchor="start" x="206.129" y="-15.4" font-family="sans-serif" font-size="14.00" fill="#000000"> &#160;Declarations</text>
<polygon fill="#8dd3c7" stroke="transparent" points="295.5,-10 295.5,-30 315.5,-30 315.5,-10 295.5,-10"/>
<text text-anchor="start" x="319.2251" y="-15.4" font-family="sans-serif" font-size="14.00" fill="#000000"> &#160;Module</text>
<polygon fill="#80b1d3" stroke="transparent" points="381.5,-10 381.5,-30 401.5,-30 401.5,-10 381.5,-10"/>
<text text-anchor="start" x="405.2812" y="-15.4" font-family="sans-serif" font-size="14.00" fill="#000000"> &#160;Bootstrap</text>
<polygon fill="#fdb462" stroke="transparent" points="478.5,-10 478.5,-30 498.5,-30 498.5,-10 478.5,-10"/>
<text text-anchor="start" x="502.1732" y="-15.4" font-family="sans-serif" font-size="14.00" fill="#000000"> &#160;Providers</text>
<polygon fill="#fb8072" stroke="transparent" points="574.5,-10 574.5,-30 594.5,-30 594.5,-10 574.5,-10"/>
<text text-anchor="start" x="598.2258" y="-15.4" font-family="sans-serif" font-size="14.00" fill="#000000"> &#160;Exports</text>
<g id="clust1" class="cluster">
<title>cluster_AppModule</title>
<polygon fill="none" stroke="#000000" stroke-dasharray="1,5" points="8,-70 8,-268 825,-268 825,-70 8,-70"/>
</g>
<g id="clust2" class="cluster">
<title>cluster_AppModule_declarations</title>
<polygon fill="none" stroke="#000000" points="168,-78 168,-130 817,-130 817,-78 168,-78"/>
</g>
<g id="clust7" class="cluster">
<title>cluster_AppModule_imports</title>
<polygon fill="none" stroke="#000000" points="16,-78 16,-130 160,-130 160,-78 16,-78"/>
</g>
<g id="clust9" class="cluster">
<title>cluster_AppModule_bootstrap</title>
<polygon fill="none" stroke="#000000" points="360,-208 360,-260 484,-260 484,-208 360,-208"/>
</g>
<!-- AppComponent -->
<g id="node1" class="node">
<title>AppComponent</title>
<polygon fill="#ffffb3" stroke="#000000" points="808.9399,-122 703.0601,-122 703.0601,-86 808.9399,-86 808.9399,-122"/>
<text text-anchor="middle" x="756" y="-99.8" font-family="Times,serif" font-size="14.00" fill="#000000">AppComponent</text>
</g>
<!-- AppModule -->
<g id="node5" class="node">
<title>AppModule</title>
<polygon fill="#8dd3c7" stroke="#000000" points="463.6571,-187 460.6571,-191 439.6571,-191 436.6571,-187 380.3429,-187 380.3429,-151 463.6571,-151 463.6571,-187"/>
<text text-anchor="middle" x="422" y="-164.8" font-family="Times,serif" font-size="14.00" fill="#000000">AppModule</text>
</g>
<!-- AppComponent&#45;&gt;AppModule -->
<g id="edge1" class="edge">
<title>AppComponent&#45;&gt;AppModule</title>
<path fill="none" stroke="#000000" d="M756,-122.2843C756,-143.3211 756,-175 756,-175 756,-175 473.9631,-175 473.9631,-175"/>
<polygon fill="#000000" stroke="#000000" points="473.9632,-171.5001 463.9631,-175 473.9631,-178.5001 473.9632,-171.5001"/>
</g>
<!-- DescricaoSalaComponent -->
<g id="node2" class="node">
<title>DescricaoSalaComponent</title>
<polygon fill="#ffffb3" stroke="#000000" points="685.8961,-122 524.1039,-122 524.1039,-86 685.8961,-86 685.8961,-122"/>
<text text-anchor="middle" x="605" y="-99.8" font-family="Times,serif" font-size="14.00" fill="#000000">DescricaoSalaComponent</text>
</g>
<!-- DescricaoSalaComponent&#45;&gt;AppModule -->
<g id="edge2" class="edge">
<title>DescricaoSalaComponent&#45;&gt;AppModule</title>
<path fill="none" stroke="#000000" d="M605,-122.0225C605,-139.3734 605,-163 605,-163 605,-163 473.9839,-163 473.9839,-163"/>
<polygon fill="#000000" stroke="#000000" points="473.9839,-159.5001 463.9839,-163 473.9839,-166.5001 473.9839,-159.5001"/>
</g>
<!-- FormularioSalaComponent -->
<g id="node3" class="node">
<title>FormularioSalaComponent</title>
<polygon fill="#ffffb3" stroke="#000000" points="506.4255,-122 337.5745,-122 337.5745,-86 506.4255,-86 506.4255,-122"/>
<text text-anchor="middle" x="422" y="-99.8" font-family="Times,serif" font-size="14.00" fill="#000000">FormularioSalaComponent</text>
</g>
<!-- FormularioSalaComponent&#45;&gt;AppModule -->
<g id="edge3" class="edge">
<title>FormularioSalaComponent&#45;&gt;AppModule</title>
<path fill="none" stroke="#000000" d="M422,-122.1061C422,-122.1061 422,-140.991 422,-140.991"/>
<polygon fill="#000000" stroke="#000000" points="418.5001,-140.9909 422,-150.991 425.5001,-140.991 418.5001,-140.9909"/>
</g>
<!-- ListarSalasComponent -->
<g id="node4" class="node">
<title>ListarSalasComponent</title>
<polygon fill="#ffffb3" stroke="#000000" points="319.5338,-122 176.4662,-122 176.4662,-86 319.5338,-86 319.5338,-122"/>
<text text-anchor="middle" x="248" y="-99.8" font-family="Times,serif" font-size="14.00" fill="#000000">ListarSalasComponent</text>
</g>
<!-- ListarSalasComponent&#45;&gt;AppModule -->
<g id="edge4" class="edge">
<title>ListarSalasComponent&#45;&gt;AppModule</title>
<path fill="none" stroke="#000000" d="M248,-122.0225C248,-139.3734 248,-163 248,-163 248,-163 370.3227,-163 370.3227,-163"/>
<polygon fill="#000000" stroke="#000000" points="370.3227,-166.5001 380.3227,-163 370.3226,-159.5001 370.3227,-166.5001"/>
</g>
<!-- AppComponent  -->
<g id="node7" class="node">
<title>AppComponent </title>
<polygon fill="#80b1d3" stroke="#000000" points="476.439,-252 367.561,-252 367.561,-216 476.439,-216 476.439,-252"/>
<text text-anchor="middle" x="422" y="-229.8" font-family="Times,serif" font-size="14.00" fill="#000000">AppComponent </text>
</g>
<!-- AppModule&#45;&gt;AppComponent  -->
<g id="edge6" class="edge">
<title>AppModule&#45;&gt;AppComponent </title>
<path fill="none" stroke="#000000" stroke-dasharray="1,5" d="M422,-187.1061C422,-187.1061 422,-205.991 422,-205.991"/>
<polygon fill="#000000" stroke="#000000" points="418.5001,-205.9909 422,-215.991 425.5001,-205.991 418.5001,-205.9909"/>
</g>
<!-- AppRoutingModule -->
<g id="node6" class="node">
<title>AppRoutingModule</title>
<polygon fill="#8dd3c7" stroke="#000000" points="152.2744,-122 149.2744,-126 128.2744,-126 125.2744,-122 23.7256,-122 23.7256,-86 152.2744,-86 152.2744,-122"/>
<text text-anchor="middle" x="88" y="-99.8" font-family="Times,serif" font-size="14.00" fill="#000000">AppRoutingModule</text>
</g>
<!-- AppRoutingModule&#45;&gt;AppModule -->
<g id="edge5" class="edge">
<title>AppRoutingModule&#45;&gt;AppModule</title>
<path fill="none" stroke="#000000" d="M88,-122.2843C88,-143.3211 88,-175 88,-175 88,-175 370.0369,-175 370.0369,-175"/>
<polygon fill="#000000" stroke="#000000" points="370.0369,-178.5001 380.0369,-175 370.0368,-171.5001 370.0369,-178.5001"/>
</g>
</g>
</svg>
